<?xml version="1.0"?>
<svg xmlns="http://www.w3.org/2000/svg" xmlns:xlink="http://www.w3.org/1999/xlink" xmlns:svgjs="http://svgjs.com/svgjs" version="1.1" width="512" height="512" x="0" y="0" viewBox="0 0 512 512" style="enable-background:new 0 0 512 512" xml:space="preserve" class=""><g><linearGradient xmlns="http://www.w3.org/2000/svg" id="SVGID_1_" gradientUnits="userSpaceOnUse" x1="256" x2="256" y1="512" y2="0"><stop stop-opacity="1" stop-color="#ffffff" offset="0"/><stop stop-opacity="1" stop-color="#ffffff" offset="1"/></linearGradient><g xmlns="http://www.w3.org/2000/svg"><g><path d="m256 0c-141.813 0-256 115.967-256 256 0 140.959 115.05 256 256 256 140.959 0 256-115.05 256-256 0-140.102-114.256-256-256-256zm192.048 136.99c16.688 26.834 27.924 57.406 32.116 90.144l-76.765 55.159-54.181-17.602-26.346-81.1 33.515-46.593zm-22.274-29.99-66.196.009-19.919-60.95c33.34 13.333 62.782 34.388 86.115 60.941zm-218.346-71.728c15.652-3.441 31.901-5.272 48.572-5.272s32.92 1.831 48.572 5.272l27.505 84.149-33.506 46.579h-85.142l-33.505-46.578zm112.253 235.594-63.681 46.266-63.681-46.266 24.321-74.866h78.72zm-147.34-224.807-19.919 60.951-66.196-.01c23.333-26.553 52.775-47.608 86.115-60.941zm-108.389 90.931 91.66.01 33.515 46.592-26.346 81.1-54.181 17.602-76.765-55.159c4.193-32.739 15.429-63.311 32.117-90.145zm1.028 239.655c-20.998-33.129-33.62-72.063-34.867-113.808l58.249 41.855zm22.039 29.249 30.899-95.084 54.134-17.586 68.948 50.092v56.919l-82.24 59.75c-27.411-13.119-51.775-31.609-71.741-54.091zm168.981 76.106c-22.165 0-43.588-3.222-63.843-9.197l63.843-46.384 63.843 46.384c-20.255 5.975-41.678 9.197-63.843 9.197zm97.24-22.015-82.24-59.75v-56.919l68.947-50.093 54.134 17.586 30.899 95.084c-19.965 22.483-44.329 40.973-71.74 54.092zm70.398-155.293 58.249-41.855c-1.247 41.746-13.869 80.679-34.867 113.808z" fill="url(#SVGID_1_)" data-original="url(#SVGID_1_)" style=""/></g></g></g></svg>
