<?xml version="1.0"?>
<svg xmlns="http://www.w3.org/2000/svg" xmlns:xlink="http://www.w3.org/1999/xlink" xmlns:svgjs="http://svgjs.com/svgjs" version="1.1" width="512" height="512" x="0" y="0" viewBox="0 0 512 512" style="enable-background:new 0 0 512 512" xml:space="preserve" class=""><g transform="matrix(0.95,0,0,0.95,12.799999999999983,12.800000000000068)"><linearGradient xmlns="http://www.w3.org/2000/svg" id="SVGID_1_" gradientUnits="userSpaceOnUse" x1="256" x2="256" y1="421" y2="91"><stop stop-opacity="1" stop-color="#000fb5" offset="0"/><stop stop-opacity="1" stop-color="#c21aca" offset="0.9420849420849421"/><stop stop-opacity="1" stop-color="#9e77a0" offset="1"/></linearGradient><g xmlns="http://www.w3.org/2000/svg"><g><g><path d="m497 91h-482c-8.284 0-15 6.716-15 15v300c0 8.284 6.716 15 15 15h482c8.284 0 15-6.716 15-15 0-9.454 0-286.437 0-300 0-8.284-6.716-15-15-15zm-226 122.58c17.459 6.192 30 22.865 30 42.42s-12.541 36.228-30 42.42zm-241-2.58h15c24.813 0 45 20.187 45 45s-20.187 45-45 45h-15zm211 87.42c-17.459-6.192-30-22.865-30-42.42s12.541-36.228 30-42.42zm0-115.911c-34.192 6.968-60 37.271-60 73.491s25.808 66.522 60 73.491v61.509h-211v-60h15c41.355 0 75-33.645 75-75s-33.645-75-75-75h-15v-60h211zm241 118.491h-15c-24.813 0-45-20.187-45-45s20.187-45 45-45h15zm0-120h-15c-41.355 0-75 33.645-75 75s33.645 75 75 75h15v60h-211v-61.509c34.192-6.968 60-37.271 60-73.491s-25.808-66.522-60-73.491v-61.509h211z" fill="url(#SVGID_1_)" data-original="url(#SVGID_1_)" style=""/></g></g></g></g></svg>
